# xmcd
#
# Track frame offsets:
#	150
#	13162
#	30449
#	44811
#	62548
#	77885
#	93147
#	106759
#	123971
#	138408
#	151195
#	164507
#	180594
#	196006
#	210518
#	225405
#	239467
#	256304
#	272316
#
# Disc length: 3883 seconds
#
# Revision: 1
# Processed by: cddbd v1.5.2PL0 Copyright (c) Steve Scherf et al.
# Submitted via: audiograbber 1.83.01
#
DISCID=eb0f2913
DTITLE=Various Artist - Promo Country April 2008
DYEAR=2008
DGENRE=Country
TTITLE0=Taylor Swift - Picture To Burn (Album Version)
TTITLE1=Rascal Flatts - Every Day
TTITLE2=Lost Trailers - Holler Back @
TTITLE3=Brad Paisley - I'm Still A Guy @
TTITLE4=Clint Black - Long Cool Woman @
TTITLE5=Geroge Strait - I Saw God Today
TTITLE6=Emily West - Rocks In Your Shoes
TTITLE7=Blake Shelton - Home
TTITLE8=Julianne Hough - That Song In My Head
TTITLE9=Jo Dee Messina - I'm Done
TTITLE10=Steve Earle With Allison Moorer - Days Aren't Long Enough
TTITLE11=LeAnn Rimes - Good Friends And A Glass Of Wine
TTITLE12=Carter's Chord - Young Love @
TTITLE13=Levi Webb - Two Hearts
TTITLE14=Jennifer Hanson - '73 
TTITLE15=Brittany Clarke - Start Talkin' Love
TTITLE16=Mica Roberts Feat. Toby Keith - Things A Mama Don't Know
TTITLE17=Crystal Shawanda - You Can Let Go
TTITLE18=Kelly Weaver - I Can't Let Go
EXTD=
EXTT0=
EXTT1=
EXTT2=
EXTT3=
EXTT4=
EXTT5=
EXTT6=
EXTT7=
EXTT8=
EXTT9=
EXTT10=
EXTT11=
EXTT12=
EXTT13=
EXTT14=
EXTT15=
EXTT16=
EXTT17=
EXTT18=
PLAYORDER=
